<svg xmlns="http://www.w3.org/2000/svg" viewBox="0 0 2000 1000"><defs><style>.a{fill:#edefdf;}.b{fill:#a4cedd;}.c{fill:#91e5d5;}.d{fill:#ffa1c0;}.e{fill:#feff6d;}.f{fill:#72ba50;}.g{fill:#4512ff;}.h{fill:#ff1e02;}.i{fill:#ff7b41;}.j{fill:#fff;}</style></defs><title>Untitled-2</title><rect class="a" width="2000" height="1000"/><path class="b" d="M514,272.06v85A153.56,153.56,0,0,1,667.39,511h85C752.43,379,646,272.06,514,272.06Z"/><path d="M1485.54,619.66a152.39,152.39,0,0,1-108.54,45v85c132,0,238.43-106.67,238.43-238.67h-85A152.55,152.55,0,0,1,1485.54,619.66Z"/><path class="c" d="M405.08,402.2A153.38,153.38,0,0,1,514,357.1v-85C382,272.06,274.82,379,274.82,511h85A153.22,153.22,0,0,1,405.08,402.2Z"/><path class="d" d="M1268.08,619.66A152.91,152.91,0,0,1,1222.86,511h-85c0,132,107.18,238.67,239.18,238.67v-85A153.25,153.25,0,0,1,1268.08,619.66Z"/><rect class="e" x="1006.91" y="279.45" width="200" height="60"/><rect class="f" x="806.91" y="279.45" width="200" height="60"/><rect class="g" x="1370" y="371.53" width="20" height="40"/><rect class="h" x="1400" y="371.53" width="20" height="40"/><rect class="g" x="1430" y="371.53" width="20" height="40"/><rect class="h" x="1460" y="371.53" width="20" height="40"/><rect class="g" x="1490" y="371.53" width="20" height="40"/><rect class="h" x="1520" y="371.53" width="20" height="40"/><rect class="g" x="1550" y="371.53" width="20" height="40"/><rect class="h" x="1580" y="371.53" width="20" height="40"/><rect class="g" x="1610" y="371.53" width="20" height="40"/><rect class="h" x="1640" y="371.53" width="20" height="40"/><rect class="g" x="1670" y="371.53" width="20" height="40"/><rect class="h" x="1700" y="371.53" width="20" height="40"/><rect class="b" x="352.43" y="630.34" width="200" height="60" transform="translate(904.87 1320.67) rotate(-180)"/><rect class="i" x="552.43" y="630.34" width="200" height="60" transform="translate(1304.87 1320.67) rotate(-180)"/><rect class="j" x="806.91" y="269.45" width="400" height="10"/></svg>