<svg xmlns="http://www.w3.org/2000/svg" width="256" height="256" viewBox="0 0 100 100"><rect width="100" height="100" rx="20" fill="#000000"></rect><path d="M62.60 78.44L50.25 55.43L36.89 55.43L36.89 78.44L29.36 78.44L29.36 21.56L48.18 21.56Q57.79 21.56 62.97 25.94Q68.14 30.31 68.14 38.67L68.14 38.67Q68.14 43.98 65.27 47.93Q62.40 51.88 57.29 53.83L57.29 53.83L70.64 77.97L70.64 78.44L62.60 78.44ZM36.89 27.73L36.89 49.30L48.42 49.30Q54.00 49.30 57.30 46.41Q60.61 43.52 60.61 38.67L60.61 38.67Q60.61 33.40 57.46 30.59Q54.32 27.77 48.38 27.73L48.38 27.73L36.89 27.73Z" fill="#fff"></path></svg>