<svg xmlns="http://www.w3.org/2000/svg" viewBox="0 0 230.77 100.38"><title>logo</title><path d="M228.77,2V98.38H2V2H228.77m2-2H0V100.38H230.77V0Z" fill="#1d1d1b"/><path d="M24.86,43V17.91H13.34V13.48H42v4.43H30.44V43Z" fill="#1d1d1b"/><path d="M44.12,43V13.48h5.57V43Z" fill="#1d1d1b"/><path d="M65.48,43c-2.83,0-6.67-.38-9.42-3.46s-3-7.64-3-10.89c0-4.22.38-8.57,2.87-11.48,3-3.46,7.56-3.72,9.67-3.72H77.47v4.43H68.22c-3.29,0-6.08.21-7.77,2.74-.89,1.31-1.65,3.55-1.65,7.94s.8,6.25,1.39,7.18c1.52,2.32,4.22,2.83,7.73,2.83h10V43Z" fill="#1d1d1b"/><path d="M85.41,43a5.15,5.15,0,0,1-3.29-.8,3.53,3.53,0,0,1-1.22-3V18.21a4.82,4.82,0,0,1,1-3.46,4.12,4.12,0,0,1,3.17-1.27H96.64a11.25,11.25,0,0,1,8.66,3.5c2.87,3.17,3,7.39,3,10.94,0,3.21-.21,8.28-2.62,11.48C104.49,41,102,43,97.4,43Zm1.06-6.46a2.14,2.14,0,0,0,.38,1.6,1.78,1.78,0,0,0,1.44.42H94.7c3.08,0,5.11-.68,6.38-2.74.72-1.14,1.48-3.34,1.48-8.36,0-2.53-.21-5.49-2.07-7.43-1.69-1.77-4.35-2.15-6.33-2.15H88.36a2.2,2.2,0,0,0-1.31.3,1.92,1.92,0,0,0-.59,1.48Z" fill="#1d1d1b"/><path d="M112.51,43V13.48h5.57V43Z" fill="#1d1d1b"/></svg>