<svg xmlns="http://www.w3.org/2000/svg" viewBox="0 0 2000.35 560"><defs><style>.a{fill:#2d2d2d;}.b{fill:#7f10ff;}.c{fill:none;stroke:#7f10ff;stroke-miterlimit:10;}</style></defs><title>cover-2016-01-02-saddle-up</title><rect class="a" x="0.35" width="2000" height="560"/><path class="b" d="M954.87,287.4a79.51,79.51,0,1,0,79.51-79.51A79.51,79.51,0,0,0,954.87,287.4Zm5.17,0a74.34,74.34,0,1,1,74.34,74.34A74.34,74.34,0,0,1,960,287.4Z" transform="translate(0.35)"/><path class="b" d="M886.11,334.88a32,32,0,1,0,32-32A32,32,0,0,0,886.11,334.88Zm5.2,0a26.77,26.77,0,1,1,26.77,26.77A26.77,26.77,0,0,1,891.3,334.88Z" transform="translate(0.35)"/><path class="b" d="M1029.57,285.56V201.83h2v-1.71h2.23v1.71h1.93v83.73A5,5,0,1,1,1029.57,285.56Z" transform="translate(0.35)"/><path class="b" d="M942.14,293.72l-5.3,1.84a1.59,1.59,0,0,0-.25,1.66,1.75,1.75,0,0,0,1.24,1.2l10.6-3.68a1.75,1.75,0,0,0,.23-1.72,1.59,1.59,0,0,0-1.22-1.14Z" transform="translate(0.35)"/><path class="b" d="M968.28,325.38h0Zm19,21.25h0Zm67-132.1-17.74,54.28,5.69-56.57-0.4,0-5.88,58.38-2.79,8.52-2.47-8.94-3.12-58.06-0.4,0,3,56.23-6-21.85-8.92-32.31-0.39.1,15.43,55.91,0.51,9.55-4.69-6.31-24.47-54.32-0.36.17L1025,272l-34.45-46.38-0.32.23,35.54,47.85,3.64,8.09-4.56-2.87L1001,255.41l-21.13-20.82-0.28.28,43.66,43-22.51-14.18-29.49-18.59-0.22.33,53.54,33.74,5,4.9-2.15-.42L964.83,256.6l-0.16.36,60.9,26.35-30.35-5.92-35.1-6.85-0.09.39,67.24,13.12,3.1,1.34-41.64-1.61L958.3,282.6l0,0.4,72.17,2.79-0.15.05L995,292.15l-36.13,6.46,0.06,0.39,68.89-12.31L991,299.33,961.3,309.54l0.12,0.38,69-23.69,0.2,0-5.48,4.62L1000.17,306l-31.89,19.4,0.05,0.08h0l0.07,0.11,0,0.06h0l0.05,0.08,54.63-33.23-49.3,41.56,0.24,0.32,51.27-43.22,4.55-2.77-5.16,9.43-35.55,46.3-1.93,2.52,0.08,0.06h0l0.16,0.12h0l0.08,0.06,35.92-46.79-28.82,52.67L995,353,1025.05,298l5.77-7.52L1029.17,303l-16.58,56.56h0l0.1,0,0.29,0.08,15.86-54.1-7.53,57.1,0.39,0.07,7.87-59.65,3.41-11.63,3,12.21,5,58.83h0.1l0.2,0h0.1l-4.77-56.28,12.81,52.71,0.71,2.92h0l0.1,0h0l0.19,0h0l0.1,0-14.13-58.12-1.09-12.83,6,8.66L1067,352.18l1.39,2.85,0.36-.17-26-53.27,32,45.92,1.72,2.47,0.09-.06,0.15-.11h0l0.08-.06-35.14-50.49-5.11-10.47,5.68,3.83,49,45.38,0.26-.3-47.1-43.63,52.38,35.31h0l0.06-.08h0l0.08-.13,0.08-.12-54.5-36.74-6.31-5.85,1.94,0.44,65.54,26,2,0.77,0.14-.37-65.1-25.82,64.66,14.7,2.93,0.67,0-.1,0-.1,0-.09h0l0-.1-70.1-15.93-2.52-1,74.44,0.59c0-.13,0-0.26,0-0.4l-74.42-.59,1.44-.54L1108.85,274l-0.07-.39-69.93,10.29,65.62-24.82-0.15-.37L1037,284.19l-1,.15,4.51-4,58-32.86-0.21-.34-56.38,32,22.76-20.42,25.14-22.56-0.27-.29L1040.27,280l-3.82,2.16,3.76-7.41,39.2-47.94-0.32-.24-38,46.52,27-53.23-0.36-.18-27.86,54.85-4.53,5.54,0.94-9.38,8.47-25.91,9.84-30.11Zm-18.39,68-0.77.44,0.22-2.16,3.76-4.6Zm-4.42,1.83,0-.85,0.27,0.17Zm0.57-.46,0.17,0.1-0.33.41Zm0.76,0,0.3-.37,0.3,0.4-0.29.16Zm0.56-.69,0.4-.49,0.24,0.86-0.25.14Zm-0.9.47-0.29-.18,0.28-.85,0.41,0.55Zm-0.64-.4-0.42-.27-0.1-1.92,0.86,1.16Zm0.78-1.1,0.55-1.68,0.48,1.75-0.51.63Zm1.47,0.16,0.82-1-0.19,1.84-0.34.19Zm1,1.09,0.49-.28-0.58,1.14Zm0.27,1,0.85-1.67,2.76-1.56-3.61,3.24h0Zm-0.75-.23-0.13-.46,0.19-.11Zm-0.38.1-0.22-.3L1034,284Zm-0.32.23-0.39-.25,0.15-.08Zm-1.17-.26-0.48.27,0.31-.38Zm0.4,0.49-0.34-.07,0.32-.18,0.32,0.2Zm1.53,0.56h0v0h0.09v0h-0.06Zm-3.59-1-0.71-1.58,0.67,0.42,0.06,1.17h0Zm5.17,3.7-0.88-1.81,0.07,0,4.94,4.57Zm-2.61-1.76-0.13-.09,0.37-.22Zm0.55-.06-0.11.36-0.11-.08Zm-2.18.89,0.24,1-0.74,1,0.24-1.79Zm-0.63-.08-0.34.21,0.41-.75Zm2.22,1.23L1033,290l-0.42-1.74,0.45-.59Zm0.44-.07,0.29-1,0.35,0.24,0.16,1.88Zm-1.66-1.29,0.19-.12,0.33,0.48-0.33.43Zm1.36-.07,0.24,0.16-0.23.79-0.35-.5Zm1.31,0.41-0.08-.92,0.63,1.29Zm-1.89-1.28-0.27-.18,0.25,0,0.28,0.06Zm2.13,4-0.19-2.25,0.86,0.58,4.29,8.79Zm-2,.71,0.59-2,1,1.45,0.93,11Zm-1.89-.85,1-1.26,0.51,2.1-2.88,9.83Zm-0.75-1.91,0.65-.4-0.28,2.15-4.63,6Zm0.41-1.57-0.7,1.29-2.95,1.79Zm0.79,0.09,0.06,0.25-0.1.06Zm0.37-.17,0.11,0.16-0.06,0Zm0.92,0.14,0.26,0.18-0.25.32-0.25-.36Zm1.29,0.39,0.14-.48,0.05,0.6Zm-1.76-.57-0.17-.25,0.27,0.18Zm-2.52-1.68,0.41,0.4-1.37-.59Zm1.65,0.32,0,0,0.08,0.06,0,0,0.1,0.18,0,0,0,0.2h0l0,0.2h0l-1,.18h0l0-.09h0v-0.11h0v-0.1h0l0.08-.19,0,0,0.15-.15,0,0,0.19-.09,0,0h0.21v0l0.11,0,0.09,0h0.07Zm1.82,0.35-0.47.09-0.47-.11,0.47-.07Zm2,0.62,0.15,0.06-0.11,0Zm-5.84-3.48,0.85,1.88-0.27-.05-4.11-4.05Zm1.13-1.91,0.12,2.24-0.94-.59-3.14-7Zm2.09-.71-0.65,2-1-1.41-0.45-8.34Zm2.82-7.35-0.82,8.17-1,1.24-0.57-2.05ZM1068.4,355h0Zm8-5.06h0Z" transform="translate(0.35)"/><path class="b" d="M920.34,334.49l25.49-5.2-0.08-.4-25.49,5.2v0.07l0,0.12ZM890.06,339l26.14-4.14-3,3.45-8.43,5.18L894.13,350l0.22,0.35,18-11-13.87,16,0.3,0.28,14.74-17,3.09-1.9c0,1.68-.07,4-0.12,6.69l-6.24,18.69,0.4,0.11,5.82-17.43c0,1.77-.06,3.63-0.1,5.46-0.1,5.74-.19,11.21-0.22,12.9l0.41,0c0-2.34.21-12.11,0.34-19.68l2.07-6.2,3,3.74,7.77,19.69,0.37-.17-7.28-18.45L932.44,354l2.6,3.21,0.32-.26-13-16.11-2.21-5.6-0.06,0h0l-0.25.1h0l-0.06,0,1.73,4.39-2.37-2.93,0.46-1.39-0.06,0-0.26-.09h0l-0.06,0-0.38,1.14-0.58-.72,0.79-.48,0-.06h0l-0.12-.19-0.06-.1-0.83.51-0.68-.84,3.18,0.62,22.95,12.44,0.18-.37-21.79-11.81,23.6,4.59v-0.07h0l0-.17,0-.17-24.88-4.83-0.18-.1,0,0.06-1.64-.32v0h0v-0.07l-1.47-.22,1-.55,0.52,0.58,0.09-.08,0.17-.15h0l0.05,0-0.45-.51,0.58-.32c0,0.26,0,.5,0,0.71h0.41c0-.26,0-0.57,0-0.92l1.68-.93-1.47,1.85,0.05,0h0l0.22,0.17h0l0.05,0,2.09-2.63,16.45-9.12,3.61-2-0.2-.36-19.19,10.64,12.92-16.27,0.69-.87-0.31-.26-0.7.88L930,320.86,921.93,331l-2.36,1.31-0.14-5.14,7.39-19.25-0.39-.13-7,18.3c-0.18-6.77-.42-15.72-0.53-19.55h-0.41L919,327.13l-1.79,4.66-2.38-2.68-6.37-18.51-0.72-2.09-0.38.15,6.77,19.64-13.76-15.53-0.32.26,14.43,16.29,1.58,4.6-0.21,0-22.21-13.34-0.21.36,21.35,12.83-12.31-1.83-12.32-1.83-0.07.41,25.62,3.81,0.29,0.17-26,4.12C890,338.71,890,338.85,890.06,339Zm27.48-6.84L919,328.2l0.12,4.36-0.84.47Zm-0.65,1.68,0.48-1.25,0.58,0.66Zm0.68,1.79L917,336c0-.42,0-0.78,0-1.07Zm-0.7,6.49c0-2.24.07-4.22,0.1-5.64l0.86-.53,0.78,1Zm-0.26-7.69h0Zm0,0.6c0,0.32,0,.73,0,1.2l-2.2,1.35Zm-1.39-4.9,1.86,2.11-0.6,1.56Z" transform="translate(0.35)"/><path class="b" d="M1011.28,184.16a3,3,0,0,1,4.19-.79,3.06,3.06,0,0,1,.48.41,15.35,15.35,0,0,0,3.63,1.37c3.4,0.16,6.8.22,10.18,0.53a2.23,2.23,0,0,1,2.19-.5h0c1.26,0.25,2.91.61,2.91,0.61a2.82,2.82,0,0,1,1.21,1.47h0c3.16,1.73,6.18,3.72,9.25,5.62a15.38,15.38,0,0,0,3.77.92,3,3,0,1,1-2.33,2.38c-0.28-1.39-2.28-2.65-2.56-2.82-2.88-1.3-5.78-2.56-8.59-4a2.47,2.47,0,0,1-1.79.82v3.42h-2.23v-3.93l-0.61-.13h0a2.23,2.23,0,0,1-1.92-1.86c-3-.4-5.9-1-8.85-1.49-0.32,0-2.69-.1-3.7.88A3,3,0,1,1,1011.28,184.16Z" transform="translate(0.35)"/><path class="b" d="M966.65,194.64c1.21-3,8.92-.37,13.76.88a34.87,34.87,0,0,0,11.79.12c6-.56,4.74,2.33,4.74,2.33l-0.18,0c0.73-.06,1.45-0.14,2.17-0.27a34.51,34.51,0,0,0,7.51-2.49c2.75-1.2,5.51-2.94,8.44-3.15a5.89,5.89,0,0,1,3.4.58,2.5,2.5,0,0,1,.91,2.22,2.3,2.3,0,0,1-1,1.48,10.28,10.28,0,0,1-3.18,1.42l-9.5,2.87-5.33,1.74a41.9,41.9,0,0,1,6.65-3.41c0.87-.38,3.94-1.41,6.57-2.2,0.8-.24,1.61-0.46,2.4-0.73s2.26-1,2.5-1.67c-0.06-.93-2.34-1.11-3.08-1a18,18,0,0,0-6.21,2.2c-4.29,2-8.63,3.75-13.42,4-3.07.16-6.14,0.35-9.22,0.44-2,.37-3.86.92-4.75,1.09a9.25,9.25,0,0,1-3.75-.22c-0.65-.13-1.74-0.39-3-0.69l-0.08,0a13.61,13.61,0,0,0-2.38.83,8.67,8.67,0,0,0-1.57,1,9.48,9.48,0,0,0-2.75,6.2,8.38,8.38,0,0,0,.92,4c1.56,2.56,4.09,4.23,7.3,3.73a18.11,18.11,0,0,0,3-1.68l2.2-1.47c1-.65,2.15-1.62,3.67-2.51-0.23.18-1.92,2-2.16,2.2l-2.83,2.13L978,216.27a5.63,5.63,0,0,1-2,1.25,6,6,0,0,1-3.63-.54h0c-4.36-2.06-5.61-5.27-5.5-8.7a10.93,10.93,0,0,1,3.45-7.32,7.42,7.42,0,0,1,2.17-1.38c-1.15-.31-2.25-0.64-3.08-0.92C965.89,197.51,966.22,196.64,966.65,194.64Z" transform="translate(0.35)"/><path class="b" d="M1006.05,275.6h0.15s0,0,0,0c1.57-.12,1.54-2,2.32-2s0.88,1.8,2.44,2.06h10s0,0,0,0c1.57-.12,1.54-2,2.31-2s0.88,1.8,2.44,2.06H1026v3.52h-0.43c-1.48.31-1.6,2-2.36,2s-0.75-1.91-2.31-2v0h-10c-1.48.31-1.6,2-2.36,2s-0.75-1.91-2.32-2v0h-0.15V275.6Z" transform="translate(0.35)"/><rect class="b" x="1026.19" y="277.28" width="1.89" height="13.12" transform="translate(-2.87 555.76) rotate(-30.23)"/><rect class="b" x="1036.54" y="290.88" width="1.89" height="12.18" transform="translate(-31.21 444.31) rotate(-23.82)"/><path class="b" d="M1037,300.72h0.15s0,0,0,0c1.57-.12,1.54-2,2.32-2s0.88,1.8,2.44,2.06h10s0,0,0,0c1.57-.12,1.54-2,2.32-2s0.88,1.8,2.44,2.06h0.35v3.51h-0.43c-1.48.31-1.6,2-2.36,2s-0.75-1.91-2.32-2v0h-10c-1.48.31-1.6,2-2.36,2s-0.75-1.91-2.32-2v0H1037v-3.51Z" transform="translate(0.35)"/><path class="b" d="M919.85,335.25l-2.29-1.67c15-20.62,19.12-36.25,23.5-52.8,2.48-9.36,5-19,9.73-29.62,12.52-28.25,34.46-41.93,50.67-48.44,17.54-7,31.91-7.41,32.51-7.42l0.06,2.83a100.34,100.34,0,0,0-31.61,7.26c-15.69,6.32-36.93,19.58-49,46.92-4.6,10.38-7.13,19.95-9.58,29.2C939.55,297.57,935.15,314.19,919.85,335.25Z" transform="translate(0.35)"/><circle class="b" cx="918.27" cy="335.39" r="4.35"/><path class="b" d="M1070.94,193.51a5.5,5.5,0,0,1,1.86.4,5.85,5.85,0,0,1,2.84,2.48,5.58,5.58,0,0,1,.71,2.17c0,0.24.09,0.89,0.09,1.15s-0.07.82-.07,1a6.5,6.5,0,0,1-.64,2.17,5.91,5.91,0,0,1-4.54,3.06,6.82,6.82,0,0,1-2.33-.09,6.13,6.13,0,0,1-1.64-.62,5.75,5.75,0,0,1-3.1-4.68c0-.16,0-0.71,0-0.86s0-.67,0-0.82a5.91,5.91,0,0,1,4.43-5.25,7.21,7.21,0,0,1,1.71-.16A6.81,6.81,0,0,1,1070.94,193.51Zm1.44,11a4.13,4.13,0,0,0,2.35-2.17,7.21,7.21,0,0,0,.42-3.79,4.23,4.23,0,0,0-2.57-3.33,5.46,5.46,0,0,0-2.31-.51,7.53,7.53,0,0,0-2.17.35,4,4,0,0,0-2.31,2.08,5,5,0,0,0-.53,1.77c-0.2,1.73.18,3.86,1.73,4.94a6.33,6.33,0,0,0,3.28,1.06A6.72,6.72,0,0,0,1072.38,204.46Zm0.8-1.22a8,8,0,0,1-1,0,2.19,2.19,0,0,1-.91-0.11,0.48,0.48,0,0,1-.18-0.4c0-.22,0-0.55-0.09-0.75a1.25,1.25,0,0,0-.6-0.67,0.86,0.86,0,0,0-.84,0,5.1,5.1,0,0,0,0,1.42,0.42,0.42,0,0,1-.09.42,1.16,1.16,0,0,1-.55,0c-0.33,0-.73,0-1.06,0a0.51,0.51,0,0,1-.49-0.35,1.63,1.63,0,0,1,0-.33c0-.13,0-0.29,0-0.47a29.84,29.84,0,0,0,0-3.15c0-.44,0-0.89,0-1.37a1.54,1.54,0,0,1,.2-1c0.29-.35.82-0.29,1.82-0.29a7.79,7.79,0,0,1,2.59.29,2.21,2.21,0,0,1,1,3.13,1,1,0,0,1-.31.29,0.52,0.52,0,0,0-.33.49,0.64,0.64,0,0,0,.24.24,1.61,1.61,0,0,1,.27.38,2.26,2.26,0,0,1,.4.8C1073.4,202.18,1073.53,203.11,1073.17,203.24Zm-2.59-5a1.08,1.08,0,0,0-.91,0,0.59,0.59,0,0,0-.09.51,1,1,0,0,0,0,.58,0.35,0.35,0,0,0,.29.31,0.84,0.84,0,0,0,1-.35A0.86,0.86,0,0,0,1070.58,198.26Z" transform="translate(0.35)"/><line class="c" x1="1034.38" y1="365.91" y2="365.91"/></svg>